<?xml version="1.0" encoding="UTF-8" standalone="no"?>
<!DOCTYPE svg PUBLIC "-//W3C//DTD SVG 1.0//EN" "http://www.w3.org/TR/2001/REC-SVG-20010904/DTD/svg10.dtd">
<!-- Created with Sodipodi ("http://www.sodipodi.com/") -->
<svg id="svg602" sodipodi:version="0.34" xmlns="http://www.w3.org/2000/svg" xmlns:sodipodi="http://sodipodi.sourceforge.net/DTD/sodipodi-0.dtd" xmlns:xlink="http://www.w3.org/1999/xlink" width="225pt" height="225pt" xml:space="preserve" sodipodi:docbase="/home/tinea/Documents/Images/wiki" sodipodi:docname="/home/tinea/Documents/Images/wiki/squaring_the_circle_inline"><defs id="defs604"/><sodipodi:namedview id="base"/><rect style="font-size:12;fill:#ffffff;fill-rule:evenodd;stroke-width:1;fill-opacity:1;" id="rect772" width="281.250092" height="281.250128" x="0" y="-1.18752716e-4"/><g id="g650" transform="translate(-109.375,-161.7372)" style="font-size:12;"><rect style="font-size:12;fill:none;fill-rule:evenodd;stroke:#008000;stroke-width:2.5;" id="rect605" width="221.562561" height="221.562561" x="139.375" y="191.424591"/><path sodipodi:type="arc" style="font-size:12;fill:none;fill-rule:evenodd;stroke:#208080;stroke-width:2.3793;" id="path607" d="M 445.7458 268.1178 A 120.653 117.3015 0 1 0 204.4398 268.1178 A 120.653 117.3015 0 1 0  445.7458 268.1178 z" sodipodi:cx="325.092773" sodipodi:cy="268.117767" sodipodi:rx="120.653" sodipodi:ry="117.301521" transform="matrix(1.036029,0,0,1.06563,-86.80554,16.64784)"/><path style="font-size:12;fill:none;fill-rule:evenodd;stroke:#000000;stroke-width:0.625;" d="M 142.1909 213.4358 L 357.8472 213.4358 " id="path613"/><path style="font-size:12;fill:none;fill-rule:evenodd;stroke:#000000;stroke-width:0.620223;" d="M 250.469 301.2449 L 336.3571 388.3051 " id="path632"/><path style="font-size:12;fill-rule:evenodd;stroke:#000000;stroke-width:0.254639;" d="M 153.7629 216.5187 L 141.244 213.4769 L 153.7173 210.2688 C 153.0099 211.7123 153.0392 214.9932 153.7629 216.5187 z " id="path646" sodipodi:nodetypes="cccc"/><path style="font-size:12;fill-rule:evenodd;stroke:#000000;stroke-width:0.254639;" d="M 330.7504 378.2721 L 337.373 389.3229 L 326.3316 382.692 C 327.8562 382.1826 330.1721 379.8585 330.7504 378.2721 z " id="path647" sodipodi:nodetypes="cccc"/><path style="font-size:12;fill-rule:evenodd;stroke:#000000;stroke-width:0.254639;" d="M 346.7735 210.1998 L 359.2178 213.5332 L 346.673 216.449 C 347.4139 215.0224 347.4613 211.7418 346.7735 210.1998 z " id="path648" sodipodi:nodetypes="cccc"/><path sodipodi:type="arc" style="fill-rule:evenodd;stroke:#000000;fill:#000000;fill-opacity:1;stroke-opacity:1;stroke-width:0.125;stroke-linejoin:miter;stroke-linecap:butt;stroke-dasharray:none;" id="path649" d="M 251.954 301.2658 A 1.328125 1.328125 0 1 0 249.2977 301.2658 A 1.328125 1.328125 0 1 0  251.954 301.2658 z" sodipodi:cx="250.625854" sodipodi:cy="301.265839" sodipodi:rx="1.328125" sodipodi:ry="1.328125"/></g><rect style="font-size:12;fill:#ffffff;fill-rule:evenodd;" id="rect727" width="42.5003014" height="10.0000763" x="118.233076" y="46.6144447"/><text style="font-size:20;font-weight:normal;stroke-width:1;font-family:Georgia;" x="246.604767" y="241.836899" id="text679" sodipodi:linespacing="100%" xml:space="preserve" transform="translate(-121.3638,-183.8777)"><tspan x="246.604767" y="241.836899" sodipodi:role="line" id="tspan682">ù</tspan></text><rect style="font-size:12;fill:#ffffff;fill-rule:evenodd;" id="rect728" width="42.500298" height="10.0000755" x="234.895528" y="-24.8019117" transform="matrix(0.653329,0.757074,-0.757074,0.653329,0,0)"/><text style="font-size:20;font-weight:normal;font-family:Georgia;" x="242.108773" y="3.94598667" id="text659" sodipodi:linespacing="100%" xml:space="preserve" transform="matrix(0.707107,0.707107,-0.707107,0.707107,0,0)"><tspan x="242.10878" y="3.94598675" sodipodi:role="line" id="tspan684">r=1</tspan></text></svg>